<mxfile host="Electron" modified="2024-01-11T08:41:36.076Z" agent="Mozilla/5.0 (Macintosh; Intel Mac OS X 10_15_7) AppleWebKit/537.36 (KHTML, like Gecko) draw.io/22.0.3 Chrome/114.0.5735.289 Electron/25.8.4 Safari/537.36" etag="VulYQxAJVJIHzJpwGBIY" version="22.0.3" type="device">
  <diagram name="Page-1" id="ihIug6mnemJ0ZzTTOfuD">
    <mxGraphModel dx="1306" dy="836" grid="1" gridSize="10" guides="1" tooltips="1" connect="1" arrows="1" fold="1" page="1" pageScale="1" pageWidth="1169" pageHeight="827" math="0" shadow="0">
      <root>
        <mxCell id="0" />
        <mxCell id="1" parent="0" />
        <mxCell id="IcsYvZiyQTi8RG28U916-4" style="edgeStyle=orthogonalEdgeStyle;rounded=0;orthogonalLoop=1;jettySize=auto;html=1;entryX=0;entryY=0.75;entryDx=0;entryDy=0;exitX=1;exitY=0.75;exitDx=0;exitDy=0;" edge="1" parent="1" source="IcsYvZiyQTi8RG28U916-1" target="IcsYvZiyQTi8RG28U916-2">
          <mxGeometry relative="1" as="geometry" />
        </mxCell>
        <mxCell id="IcsYvZiyQTi8RG28U916-6" value="startTabPuzzle" style="edgeLabel;html=1;align=center;verticalAlign=middle;resizable=0;points=[];" vertex="1" connectable="0" parent="IcsYvZiyQTi8RG28U916-4">
          <mxGeometry x="-0.2" y="-1" relative="1" as="geometry">
            <mxPoint as="offset" />
          </mxGeometry>
        </mxCell>
        <mxCell id="IcsYvZiyQTi8RG28U916-1" value="Popup" style="rounded=0;whiteSpace=wrap;html=1;" vertex="1" parent="1">
          <mxGeometry x="80" y="80" width="120" height="60" as="geometry" />
        </mxCell>
        <mxCell id="IcsYvZiyQTi8RG28U916-5" style="edgeStyle=orthogonalEdgeStyle;rounded=0;orthogonalLoop=1;jettySize=auto;html=1;" edge="1" parent="1" source="IcsYvZiyQTi8RG28U916-2" target="IcsYvZiyQTi8RG28U916-3">
          <mxGeometry relative="1" as="geometry" />
        </mxCell>
        <mxCell id="IcsYvZiyQTi8RG28U916-7" value="Start" style="edgeLabel;html=1;align=center;verticalAlign=middle;resizable=0;points=[];" vertex="1" connectable="0" parent="IcsYvZiyQTi8RG28U916-5">
          <mxGeometry x="-0.0167" y="-2" relative="1" as="geometry">
            <mxPoint as="offset" />
          </mxGeometry>
        </mxCell>
        <mxCell id="IcsYvZiyQTi8RG28U916-2" value="Content" style="rounded=0;whiteSpace=wrap;html=1;" vertex="1" parent="1">
          <mxGeometry x="320" y="80" width="120" height="60" as="geometry" />
        </mxCell>
        <mxCell id="IcsYvZiyQTi8RG28U916-3" value="Service Worker" style="rounded=0;whiteSpace=wrap;html=1;" vertex="1" parent="1">
          <mxGeometry x="560" y="80" width="120" height="60" as="geometry" />
        </mxCell>
        <mxCell id="IcsYvZiyQTi8RG28U916-8" value="Popup sends &#39;Get Tab Puzzle&#39; to get the puzzle ID and tab ID of the page that is showing a puzzle.&lt;br&gt;&#39;Get Tab Puzzle&#39; also returns the status of the puzzle - is it a candidate or has it already been startedl&lt;br&gt;Popup sends &#39;&#39;startTabPuzzle&#39; to tab, the tab then sends &#39;start&#39; to the service worker, saving the puzzle." style="text;html=1;strokeColor=none;fillColor=none;align=left;verticalAlign=middle;whiteSpace=wrap;rounded=0;" vertex="1" parent="1">
          <mxGeometry x="80" y="170" width="600" height="30" as="geometry" />
        </mxCell>
        <mxCell id="IcsYvZiyQTi8RG28U916-10" style="edgeStyle=orthogonalEdgeStyle;rounded=0;orthogonalLoop=1;jettySize=auto;html=1;entryX=0;entryY=0.75;entryDx=0;entryDy=0;exitX=1;exitY=0.75;exitDx=0;exitDy=0;" edge="1" parent="1">
          <mxGeometry relative="1" as="geometry">
            <mxPoint x="200" y="100" as="sourcePoint" />
            <mxPoint x="320" y="100" as="targetPoint" />
          </mxGeometry>
        </mxCell>
        <mxCell id="IcsYvZiyQTi8RG28U916-11" value="getTabPuzzelStatus" style="edgeLabel;html=1;align=center;verticalAlign=middle;resizable=0;points=[];" vertex="1" connectable="0" parent="IcsYvZiyQTi8RG28U916-10">
          <mxGeometry x="-0.2" y="-1" relative="1" as="geometry">
            <mxPoint as="offset" />
          </mxGeometry>
        </mxCell>
        <mxCell id="IcsYvZiyQTi8RG28U916-15" value="To avoid race conditions" style="text;html=1;strokeColor=none;fillColor=none;align=left;verticalAlign=middle;whiteSpace=wrap;rounded=0;fontStyle=1" vertex="1" parent="1">
          <mxGeometry x="80" y="280" width="520" height="30" as="geometry" />
        </mxCell>
      </root>
    </mxGraphModel>
  </diagram>
</mxfile>
